<svg id="Layer_1" data-name="Layer 1" xmlns="http://www.w3.org/2000/svg" viewBox="0 0 50 50.14"><defs><style>.cls-1{fill:#fff;}</style></defs><path id="Path_2042" data-name="Path 2042" class="cls-1" d="M50,25.87a22.67,22.67,0,0,1-3.27,4.28c-1.9,2.33-3.87,4.61-5.79,6.94a8.51,8.51,0,0,1-6.83,3.21c-4.22,0-8.44,0-12.65,0A4.25,4.25,0,0,0,18.22,42a.5.5,0,0,0,0,.36,3,3,0,0,1-.92,2.93c-1.48,1.44-3,2.91-4.42,4.35a6.36,6.36,0,0,1-.57.46h-.59c-.29-.27-.59-.5-.87-.77Q5.66,44.17.52,39c-.69-.69-.69-1.15,0-1.83,1.43-1.44,2.86-2.85,4.28-4.29a3.15,3.15,0,0,1,2.48-1,.57.57,0,0,0,.45-.24c3.25-5.7,10.35-7.09,15.44-5.13a2.45,2.45,0,0,0,.81.13c3.34,0,6.67,0,10,0a4.29,4.29,0,0,1,3.6,1.61,1.83,1.83,0,0,1,.23-.49l5.44-5.61a3.9,3.9,0,0,1,6.66,1.31.83.83,0,0,0,.08.12ZM16.92,40.51a3.64,3.64,0,0,0,.4-.37,5.58,5.58,0,0,1,4.46-1.81c4,.06,8.11,0,12.17,0a6.71,6.71,0,0,0,5.54-2.58c.85-1.07,1.75-2.1,2.63-3.15Q44.9,29.31,47.66,26a2,2,0,0,0-.13-2.76h0a2,2,0,0,0-2.73.11l-6.26,6.45a.68.68,0,0,0-.19.42A4,4,0,0,1,34,34.43H26.87a2.82,2.82,0,0,1-.58,0,1,1,0,0,1-.83-1,1,1,0,0,1,.9-.92,3.17,3.17,0,0,1,.53,0h7.19q.31,0,.63,0a2,2,0,0,0,.28-3.8,3.94,3.94,0,0,0-1-.09H23.67a2.62,2.62,0,0,1-1-.16,11.08,11.08,0,0,0-6.66-.54,9.67,9.67,0,0,0-6.59,4.63.46.46,0,0,0,0,.65l.06,0c.69.66,1.34,1.33,2,2ZM12.2,47.75c1.24-1.3,2.55-2.65,3.85-4A1,1,0,0,0,16,42.33l-.1-.08-8-8A1,1,0,0,0,6.44,34a1,1,0,0,0-.24.25L3.61,36.8c-.42.41-.85.8-1.32,1.25Z" transform="translate(0 0.04)"/><path id="Path_2043" data-name="Path 2043" class="cls-1" d="M29.16,21.49A10.77,10.77,0,1,1,39.94,10.78,10.75,10.75,0,0,1,29.16,21.49Zm0-2A8.77,8.77,0,1,0,22.94,17a8.79,8.79,0,0,0,6.24,2.58Z" transform="translate(0 0.04)"/><path id="Path_2044" data-name="Path 2044" class="cls-1" d="M23.32,33.3a1,1,0,0,1-1,1,1,1,0,0,1-1-1,1,1,0,0,1,.31-.69,1,1,0,0,1,.72-.26.89.89,0,0,1,.66.3A.91.91,0,0,1,23.32,33.3Z" transform="translate(0 0.04)"/><path id="Path_2045" data-name="Path 2045" class="cls-1" d="M30.06,9.36H26.62a.74.74,0,0,1-.77-.71v0a.74.74,0,0,1,.76-.7h0c1,0,1.93,0,2.89,0h.53a1.59,1.59,0,0,0-1.32-1.08,20.86,20.86,0,0,0-2.09-.08.76.76,0,0,1-.73-.41.67.67,0,0,1,0-.57.61.61,0,0,1,.42-.38,1.88,1.88,0,0,1,.53-.07h5.8a.71.71,0,1,1-.06,1.41c-.48,0-1,0-1.51,0,.16.38.3.74.46,1.08,0,.06.17.08.25.08h.84a.72.72,0,0,1,.73.68.74.74,0,0,1-.71.74H31.59A3.42,3.42,0,0,1,28.4,12l.26.29,2.53,2.41a1.65,1.65,0,0,1,.33.37.7.7,0,0,1-.91,1,1.59,1.59,0,0,1-.33-.25l-4-3.81c-.07-.07-.17-.13-.2-.21-.06-.24-.19-.54-.11-.73a.85.85,0,0,1,.6-.41c.56-.06,1.12,0,1.68,0A2,2,0,0,0,30.06,9.36Z" transform="translate(0 0.04)"/></svg>